<svg width="24" height="22" viewBox="0 0 24 22" fill="none" xmlns="http://www.w3.org/2000/svg">
<path fill-rule="evenodd" clip-rule="evenodd" d="M12.8356 0.0957275L23.5815 5.89788C23.9687 6.10848 24.1133 6.59243 23.9049 6.97853C23.6953 7.3657 23.2103 7.50716 22.8232 7.30188L21.9531 6.83175L20.2236 19.053C19.9917 20.3708 18.8292 21.2728 17.3912 21.2728H7.51846C6.08255 21.2728 4.91893 20.3719 4.69131 19.0795L2.95864 6.83388L2.09178 7.30188C1.97159 7.3657 1.84076 7.3976 1.71312 7.3976C1.4302 7.3976 1.15471 7.2455 1.01112 6.9796C0.801586 6.59137 0.946241 6.10741 1.33341 5.89788L12.0772 0.0957275C12.3144 -0.0319092 12.5984 -0.0319092 12.8356 0.0957275ZM17.3933 19.6773C17.9006 19.6773 18.5346 19.4476 18.6484 18.803L20.4566 6.02338L12.4559 1.70501L4.45731 6.02551L6.26762 18.8285C6.37718 19.4476 7.01004 19.6773 7.52059 19.6773H17.3933ZM12.4563 14.826C10.2387 14.826 8.43579 13.0221 8.43579 10.8055C8.43579 8.58887 10.2387 6.78494 12.4563 6.78494C14.674 6.78494 16.4769 8.58887 16.4769 10.8055C16.4769 13.0221 14.674 14.826 12.4563 14.826ZM12.4563 13.2306C13.7944 13.2306 14.8814 12.1435 14.8814 10.8055C14.8814 9.46743 13.7944 8.38039 12.4563 8.38039C11.1183 8.38039 10.0312 9.46743 10.0312 10.8055C10.0312 12.1435 11.1183 13.2306 12.4563 13.2306Z" fill="white"/>
</svg>
